<?xml version="1.0" encoding="utf-8" ?>
<svg baseProfile="full" height="1000" version="1.1" width="1152" xmlns="http://www.w3.org/2000/svg" xmlns:ev="http://www.w3.org/2001/xml-events" xmlns:xlink="http://www.w3.org/1999/xlink"><defs /><rect fill="rgb(165, 0, 38)" height="100px" rx="10" ry="10" stroke="black" stroke-width="1" width="200px" x="80" y="480" /><text fill="rgb(15%,15%,15%)" font-size="20px" font-weight="bold" stroke="none" x="85" y="530">mcux-sdk</text><rect fill="rgb(253, 174, 97)" height="60px" stroke="black" stroke-width="1" width="100px" x="180" y="500" /><a target="_blank" xlink:href="https://github.com/NXPmicro/mcux-sdk/blob/main/west.yml"><text fill="rgb(15%,15%,15%)" font-size="15px" font-weight="bold" stroke="none" x="200" y="530">west.yml</text></a><g id="hlines" stroke="grey"><line x1="280" x2="350" y1="530" y2="70" /><line x1="280" x2="350" y1="530" y2="220" /><line x1="280" x2="350" y1="530" y2="370" /><line x1="280" x2="350" y1="530" y2="520" /><line x1="280" x2="350" y1="530" y2="670" /><line x1="280" x2="350" y1="530" y2="820" /></g><a target="_blank" xlink:href="https://github.com/NXPmicro/mcux-sdk-examples/tree/MCUX_2.10.0"><rect fill="rgb(224, 243, 248)" height="100" rx="10" ry="10" stroke="black" stroke-width="1" width="280" x="350" y="20" /><text fill="rgb(15%,15%,15%)" font-size="15px" font-weight="bold" stroke="none" x="355" y="70">mcux-sdk-examples</text></a><a target="_blank" xlink:href="https://github.com/NXPmicro/FreeRTOS-Kernel/tree/MCUX_2.10.0"><rect fill="rgb(69, 117, 180)" height="100" rx="10" ry="10" stroke="black" stroke-width="1" width="280" x="350" y="170" /><text fill="rgb(15%,15%,15%)" font-size="15px" font-weight="bold" stroke="none" x="355" y="220">FreeRTOS-Kernel</text></a><a target="_blank" xlink:href="https://github.com/NXPmicro/mcux-sdk-middleware-sdmmc/tree/MCUX_2.10.0"><rect fill="rgb(215, 48, 39)" height="100" rx="10" ry="10" stroke="black" stroke-width="1" width="280" x="350" y="320" /><text fill="rgb(15%,15%,15%)" font-size="15px" font-weight="bold" stroke="none" x="355" y="370">mcux-sdk-middleware-sdmmc</text></a><a target="_blank" xlink:href="https://github.com/NXPmicro/mcux-sdk-middleware-multicore/tree/MCUX_2.10.0"><rect fill="rgb(254, 224, 144)" height="100" rx="10" ry="10" stroke="black" stroke-width="1" width="280" x="350" y="470" /><text fill="rgb(15%,15%,15%)" font-size="15px" font-weight="bold" stroke="none" x="355" y="520">mcux-sdk-middleware-multicore</text></a><a target="_blank" xlink:href="https://github.com/NXPmicro/rpmsg-lite/tree/3933134378690a9c04d533e26516b3388fe4acc3"><rect fill="rgb(171, 217, 233)" height="100" rx="10" ry="10" stroke="black" stroke-width="1" width="280" x="350" y="620" /><text fill="rgb(15%,15%,15%)" font-size="15px" font-weight="bold" stroke="none" x="355" y="670">rpmsg-lite</text></a><a target="_blank" xlink:href="https://github.com/EmbeddedRPC/erpc/tree/1.8.1"><rect fill="rgb(49, 54, 149)" height="100" rx="10" ry="10" stroke="black" stroke-width="1" width="280" x="350" y="770" /><text fill="rgb(15%,15%,15%)" font-size="15px" font-weight="bold" stroke="none" x="355" y="820">erpc</text></a></svg>